<?xml version="1.0" encoding="utf-8"?>
<!-- Generator: Adobe Illustrator 24.0.1, SVG Export Plug-In . SVG Version: 6.00 Build 0)  -->
<svg version="1.1" id="Ebene_1" xmlns="http://www.w3.org/2000/svg" xmlns:xlink="http://www.w3.org/1999/xlink" x="0px" y="0px"
	 width="286.29922px" height="84.61417px" viewBox="0 0 286.29922 84.61417" style="enable-background:new 0 0 286.29922 84.61417;"
	 xml:space="preserve">
<style type="text/css">
	.st0{fill:#00A0E1;}
	.st1{fill:url(#SVGID_1_);}
</style>
<g>
	<g>
		<path class="st0" d="M2.41342,69.65065h3.14746L9.1058,51.5237H5.91928l0.99609-5.17969H19.0267
			c2.03125,0,3.66504,0.15918,5.09961,0.55762c3.02734,0.91699,4.78027,3.14746,4.78027,6.0957
			c0,2.78906-1.63281,5.41895-4.42188,6.85254v0.08008c2.50977,0.95605,3.42676,3.14746,3.42676,5.57812
			c0,4.18262-2.70996,7.1709-6.33496,8.52539c-1.67383,0.59766-3.66504,0.79688-5.57812,0.79688H1.41732L2.41342,69.65065z
			 M16.55599,69.25221c0.99609,0,2.03223-0.31836,2.70996-0.83594c0.87598-0.71777,1.47363-1.87305,1.47363-3.10742
			c0-1.43457-0.79688-2.35059-2.50977-2.35059h-4.22363l-1.23438,6.29395H16.55599z M18.6683,57.38014
			c1.95215,0,3.06738-1.59375,3.06738-3.22754c0-0.7168-0.19922-1.43359-0.67773-1.79199
			c-0.4375-0.31934-1.0752-0.43848-1.87207-0.43848h-3.06738l-1.03613,5.45801H18.6683z"/>
		<path class="st0" d="M43.75814,62.08131h0.27832c0,0,0.16016-0.75684,0.16016-1.19531c0-1.19531-1.19531-1.67285-2.5498-1.67285
			c-2.70996,0-6.05664,1.87207-6.05664,1.87207l-1.39355-4.98047c0,0,4.2627-2.27051,8.80469-2.27051
			c3.42578,0,8.00781,1.31445,8.00781,6.33496c0,2.39062-1.39453,6.4541-1.39453,8.28613c0,0.91699,0.43848,1.43457,1.55371,1.43457
			c0.31836,0,0.75684-0.04004,0.75684-0.04004l-0.95605,4.98047c0,0-0.51758,0.11914-2.58984,0.11914
			c-2.11133,0-4.86035-0.0791-5.57715-3.02734h-0.08008c0,0-2.43066,3.38672-6.53418,3.38672
			c-3.02734,0-5.77637-1.71387-5.77637-5.41895C30.41146,63.91432,38.49936,62.08131,43.75814,62.08131z M38.73764,70.36842
			c1.91309,0,3.94434-2.31055,4.38281-3.94434l0.11914-0.47852h-0.63672c-1.51465,0-5.41895,0.43848-5.41895,2.78906
			C37.18393,69.84987,37.70248,70.36842,38.73764,70.36842z"/>
		<path class="st0" d="M56.39682,77.65944c1.43359,0,2.9082-0.39844,3.70508-1.67383l0.11914-0.19922l-3.5459-16.49414h-2.31055
			l0.95605-4.97949h11.07617l-0.95605,4.97949h-1.99218l1.03613,7.60938c0.15918,1.23535-0.04004,2.66992-0.04004,2.66992h0.15918
			c0,0,0.47754-1.43457,1.15527-2.66992l3.9043-7.60938h-1.87207l0.95605-4.97949h10.83691l-0.95703,4.97949h-2.11133l-10,17.33105
			c-2.98828,5.13965-6.49414,6.57324-10.23925,6.57324c-3.86426,0-6.05566-1.67285-6.05566-1.67285l2.94824-4.74121
			C53.16928,76.78249,54.20541,77.65944,56.39682,77.65944z"/>
		<path class="st0" d="M80.11947,64.7112h6.37402l-0.39844,1.95215c-0.4375,1.95215,2.03223,2.46973,4.10449,2.46973
			c3.06738,0,4.22266-1.59375,4.22266-2.98828c0-3.66504-11.99219-2.62891-11.99219-11.19531
			c0-6.33398,5.7373-9.08301,11.91211-9.08301c3.4668,0,9.9209,1.0752,8.9248,5.93555l-0.75684,3.74512h-6.375l0.3584-1.83203
			c0.31934-1.35449-1.39355-1.67383-2.9873-1.67383c-2.39062,0-3.94434,0.75684-3.94434,2.4707
			c0,4.02344,12.03125,2.50977,12.03125,11.27441c0,6.29492-5.77637,9.52246-12.31055,9.52246
			c-4.10352,0-10.79688-1.83301-9.76074-7.41113L80.11947,64.7112z"/>
		<path class="st0" d="M106.88998,66.86256l1.51367-7.57031h-2.78906l0.95605-4.97949h3.02832l1.0752-5.53809h6.61426
			l-1.07617,5.53809h4.34277l-0.95605,4.97949h-4.34277l-1.35449,7.13184c-0.08008,0.3584-0.11914,0.87598-0.11914,1.0752
			c0,1.67383,1.51367,2.03223,3.02734,2.03223c0.59766,0,1.07617-0.08008,1.07617-0.08008l-1.07617,5.45898
			c0,0-1.03613,0.11914-1.83203,0.11914c-4.50293,0-8.28711-1.83301-8.28711-6.57422
			C106.69076,67.9778,106.76986,67.42018,106.88998,66.86256z"/>
		<path class="st0" d="M133.95053,62.08131h0.27832c0,0,0.16016-0.75684,0.16016-1.19531c0-1.19531-1.19531-1.67285-2.5498-1.67285
			c-2.70996,0-6.05665,1.87207-6.05665,1.87207l-1.39355-4.98047c0,0,4.2627-2.27051,8.8047-2.27051
			c3.42578,0,8.00781,1.31445,8.00781,6.33496c0,2.39062-1.39453,6.4541-1.39453,8.28613c0,0.91699,0.43848,1.43457,1.55371,1.43457
			c0.31836,0,0.75684-0.04004,0.75684-0.04004l-0.95605,4.98047c0,0-0.51758,0.11914-2.58984,0.11914
			c-2.11133,0-4.86035-0.0791-5.57715-3.02734h-0.08008c0,0-2.43066,3.38672-6.53419,3.38672
			c-3.02734,0-5.77637-1.71387-5.77637-5.41895C120.60384,63.91432,128.69174,62.08131,133.95053,62.08131z M128.93002,70.36842
			c1.91309,0,3.94434-2.31055,4.38281-3.94434l0.11914-0.47852h-0.63672c-1.51465,0-5.41895,0.43848-5.41895,2.78906
			C127.3763,69.84987,127.89486,70.36842,128.93002,70.36842z"/>
		<path class="st0" d="M148.60873,60.1692c0.08008-0.43848-0.04004-0.87695-0.7168-0.87695h-1.91212l0.99611-4.97949h6.49316
			c1.59375,0,2.4707,0.55762,2.4707,1.87207c0,0.59766-0.2793,1.99219-0.55762,2.86816h0.0791
			c1.31543-2.78809,4.18359-5.09961,7.0918-5.09961c0.67773,0,1.19531,0.08008,1.19531,0.08008l-1.31445,6.77344
			c0,0-0.51855-0.12012-1.35449-0.12012c-2.07227,0-6.0166,1.39453-7.0127,6.8125l-1.39355,7.33105h-6.89258L148.60873,60.1692z"/>
		<path class="st0" d="M166.25229,66.86256l1.51367-7.57031h-2.78906l0.95605-4.97949h3.02832l1.0752-5.53809h6.61426
			l-1.07617,5.53809h4.34277l-0.95605,4.97949h-4.34277l-1.35449,7.13184c-0.08008,0.3584-0.11914,0.87598-0.11914,1.0752
			c0,1.67383,1.51367,2.03223,3.02734,2.03223c0.59766,0,1.07617-0.08008,1.07617-0.08008l-1.07617,5.45898
			c0,0-1.03613,0.11914-1.83203,0.11914c-4.50195,0-8.28711-1.83301-8.28711-6.57422
			C166.05307,67.9778,166.13217,67.42018,166.25229,66.86256z"/>
		<path class="st0" d="M183.58725,62.95827l2.23145-11.43457h-3.1875l0.99609-5.17969h13.50586l-0.99609,5.17969h-3.18652
			l-2.19141,11.43457c-0.27931,1.47363-0.39844,1.91211-0.39844,2.58887c0,2.35059,1.55371,3.58594,4.18262,3.58594
			c1.75293,0,3.26758-0.55762,4.30273-1.63379c0.79688-0.83594,1.27539-1.83203,1.51465-3.14746l2.46973-12.82812h-3.1875
			l0.99609-5.17969h13.50586l-0.99512,5.17969h-3.1875l-2.50977,13.02734c-0.71777,3.74512-2.58984,6.81348-5.29883,8.64551
			c-2.1123,1.39453-4.74121,2.1123-7.72949,2.1123c-6.05566,0-11.27539-2.90918-11.27539-8.9248
			C183.14877,65.62721,183.26889,64.59108,183.58725,62.95827z"/>
		<path class="st0" d="M212.35385,69.65065h3.1875l3.5459-18.12695h-3.1875l0.99609-5.17969h13.34668
			c1.83301,0,3.22754,0.15918,4.58203,0.6377c2.74902,1.0752,4.78026,3.9043,4.78026,7.68945
			c0,4.50195-2.74901,8.60547-6.77245,10.19922c-1.47461,0.55762-3.1875,0.75684-4.94043,0.75684h-4.42188l-0.79688,4.02344h3.22656
			l-0.99609,5.17969h-13.5459L212.35385,69.65065z M227.81284,60.04909c0.87598,0,1.71289-0.19922,2.35059-0.55762
			c1.39355-0.79688,2.27051-2.50977,2.27051-4.42188c0-1.11621-0.31836-2.07227-0.99609-2.58984
			c-0.47852-0.3584-1.15527-0.55762-1.99219-0.55762h-3.30664l-1.59375,8.12695H227.81284z"/>
	</g>
	<g>
		<path class="st0" d="M228.07491,33.19798c13.70029,0.2661,24.75659,11.32241,25.02275,25.02258L280.62268,5.6729
			L228.07491,33.19798z"/>
		<linearGradient id="SVGID_1_" gradientUnits="userSpaceOnUse" x1="232.28424" y1="54.01138" x2="273.72778" y2="12.56783">
			<stop  offset="0" style="stop-color:#DCDCDC"/>
			<stop  offset="1" style="stop-color:#BEBEBE"/>
		</linearGradient>
		<path class="st1" d="M211.46547,33.19249h10.78516c0.93018-4.71594,3.12375-8.97824,6.21349-12.41953l-7.53053-7.53048
			C215.93138,18.64272,212.5251,25.54241,211.46547,33.19249z M269.47183,8.31188
			c-6.04843-4.33927-13.46338-6.89456-21.47542-6.89456c-9.67433,0-18.4783,3.72535-25.05673,9.81905l7.53067,7.53072
			c4.64647-4.17226,10.78966-6.7108,17.52606-6.7108c3.66048,0,7.14569,0.74979,10.31099,2.1036L269.47183,8.31188z
			 M253.10307,64.04512V74.8302c7.65001-1.05962,14.54982-4.46584,19.95006-9.46816l-7.53052-7.5306
			C262.0813,60.92124,257.81912,63.115,253.10307,64.04512z M277.98447,16.82464l-5.8483,11.1648
			c1.35349,3.16506,2.10309,6.64984,2.10309,10.30983c0,6.73634-2.53842,12.87952-6.7106,17.52607l7.53058,7.5306
			c6.09378-6.57837,9.81906-15.38227,9.81906-25.05666C284.8783,30.28755,282.32339,22.87301,277.98447,16.82464z"/>
	</g>
</g>
</svg>
