<svg width="67" height="42" viewBox="0 0 67 42" fill="none" xmlns="http://www.w3.org/2000/svg">
<path d="M62.5827 41.1891C61.116 41.1891 59.7424 40.2741 59.2535 38.7961L50.7794 14.3738L42.3052 38.7961C41.8163 40.2272 40.466 41.1891 38.9761 41.1891C37.4628 41.1891 36.1358 40.2272 35.6469 38.7961L27.1495 14.3738L18.6986 38.7961C18.1864 40.2272 16.8594 41.1891 15.3462 41.1891C13.8329 41.1891 12.5059 40.2272 12.0171 38.7961L0.190472 4.75506C-0.438106 2.90169 0.539682 0.860637 2.37886 0.203745C4.21803 -0.453146 6.24345 0.532191 6.89531 2.38556L15.3462 26.8313L23.8204 2.40902C24.3092 0.977939 25.6595 0.0160621 27.1495 0.0160621C28.6627 0.0160621 29.9897 0.977939 30.4786 2.40902L38.9528 26.8313L47.427 2.40902C47.9159 0.977939 49.2661 0.0160621 50.7561 0.0160621C52.2693 0.0160621 53.5963 0.977939 54.0852 2.40902L65.8885 36.4735C66.5404 38.3269 65.5626 40.368 63.7234 41.0249C63.3742 41.1422 62.9784 41.1891 62.5827 41.1891Z" fill="url(#paint0_linear_107_560)"/>
<defs>
<linearGradient id="paint0_linear_107_560" x1="0.00271325" y1="20.6022" x2="66.1206" y2="20.6022" gradientUnits="userSpaceOnUse">
<stop stop-color="#0066FF"/>
<stop offset="0.1354" stop-color="#046CF8"/>
<stop offset="0.3366" stop-color="#107CE4"/>
<stop offset="0.5785" stop-color="#2498C3"/>
<stop offset="0.85" stop-color="#3FBD95"/>
<stop offset="1" stop-color="#50D479"/>
</linearGradient>
</defs>
</svg>
