<svg width="256" height="256" viewBox="0 0 256 256" fill="none" xmlns="http://www.w3.org/2000/svg">
<path d="M242.412 208C236.731 208 231.41 204.446 229.516 198.704L196.692 103.836L163.868 198.704C161.974 204.264 156.744 208 150.972 208C145.111 208 139.971 204.264 138.077 198.704L105.163 103.836L72.4284 198.704C70.4445 204.264 65.3044 208 59.4429 208C53.5814 208 48.4413 204.264 46.5476 198.704L0.737786 66.4712C-1.69699 59.2717 2.09044 51.3432 9.21441 48.7915C16.3384 46.2397 24.1838 50.0673 26.7087 57.2668L59.4429 152.227L92.2673 57.3579C94.161 51.7988 99.3912 48.0624 105.163 48.0624C111.024 48.0624 116.164 51.7988 118.058 57.3579L150.882 152.227L183.707 57.3579C185.6 51.7988 190.831 48.0624 196.602 48.0624C202.463 48.0624 207.603 51.7988 209.497 57.3579L255.217 189.682C257.742 196.882 253.954 204.81 246.83 207.362C245.478 207.818 243.945 208 242.412 208Z" fill="url(#paint0_linear_215_525)"/>
<defs>
<linearGradient id="paint0_linear_215_525" x1="0.0105097" y1="128.03" x2="256.116" y2="128.03" gradientUnits="userSpaceOnUse">
<stop stop-color="#0066FF"/>
<stop offset="0.1354" stop-color="#046CF8"/>
<stop offset="0.3366" stop-color="#107CE4"/>
<stop offset="0.5785" stop-color="#2498C3"/>
<stop offset="0.85" stop-color="#3FBD95"/>
<stop offset="1" stop-color="#50D479"/>
</linearGradient>
</defs>
</svg>
