<svg width="122" height="39" viewBox="0 0 122 39" fill="none" xmlns="http://www.w3.org/2000/svg">
<g clip-path="url(#clip0_84_1175)">
<path d="M38.4386 17.8357C37.8309 7.918 29.4747 0.00390625 19.2447 0.00390625C9.01468 0.00390625 0.658504 7.918 0.0507812 17.8357C0.0507812 18.2364 0.101425 18.6371 0.152068 19.0378C0.557217 22.3437 1.8233 25.3991 3.74776 27.9537C7.24216 32.6621 12.8636 35.7175 19.2447 35.7175C10.3314 35.7175 3.03875 28.8553 2.43103 20.24C2.38038 19.8392 2.38038 19.4385 2.38038 19.0378C2.38038 18.6371 2.38038 18.2364 2.43103 17.8357C3.03875 9.22032 10.3314 2.3581 19.2447 2.3581C25.6258 2.3581 31.2472 5.41354 34.7416 10.1219C36.6661 12.6765 37.9321 15.7319 38.3373 19.0378C38.3879 19.4385 38.4386 19.8392 38.4386 20.1899C38.4386 19.7892 38.4892 19.3884 38.4892 18.9877C38.4892 18.6371 38.4892 18.2364 38.4386 17.8357Z" fill="#61AF41"/>
<path d="M0.0506435 20.2412C0.658366 30.1589 9.01455 38.073 19.2445 38.073C29.4745 38.073 37.8307 30.1589 38.4384 20.2412C38.4384 19.8405 38.3878 19.4398 38.3372 19.0391C37.932 15.7332 36.6659 12.6778 34.7415 10.1232C31.2471 5.41482 25.6256 2.35938 19.2445 2.35938C28.1578 2.35938 35.4505 9.2216 36.0582 17.8369C36.1088 18.2377 36.1088 18.6384 36.1088 19.0391C36.1088 19.4398 36.1088 19.8405 36.0582 20.2412C35.4505 28.9067 28.1578 35.7188 19.2445 35.7188C12.8635 35.7188 7.24203 32.6634 3.74762 27.955C1.82317 25.4004 0.557079 22.345 0.151931 19.0391C0.101287 18.6384 0.0506435 18.2377 0.0506435 17.887C0.0506435 18.2877 0 18.6885 0 19.0892C0 19.4398 3.62231e-09 19.8405 0.0506435 20.2412Z" fill="#00BCFF"/>
<path d="M16.8594 3.66016V8.91954H20.5564C21.4679 8.91954 22.177 8.21828 22.177 7.31667C22.177 6.86587 21.9744 6.46514 21.6705 6.1646C21.8731 5.91416 22.025 5.56353 22.0756 5.21291C22.0756 4.36139 21.3666 3.66016 20.5057 3.66016H16.8594ZM18.0748 4.76212H20.3031C20.5563 4.76212 20.759 4.96246 20.759 5.21291C20.759 5.46335 20.5563 5.6637 20.3031 5.6637H18.0748V4.76212ZM18.0748 6.76566H20.3538C20.6576 6.76566 20.8602 6.96603 20.8602 7.26656C20.8602 7.5671 20.6576 7.76746 20.3538 7.76746H18.0748V6.76566Z" fill="#BABABA"/>
<path d="M18.6335 9.92578L16 15.1852H17.3674L17.7725 14.2836H20.7605L21.1657 15.1852H22.533L19.8489 9.92578H18.6335ZM19.2412 11.2782L20.1528 13.1816H18.3296L19.2412 11.2782Z" fill="#BABABA"/>
<path d="M21.0681 16.332H22.5874L19.9033 19.7381V21.5914H18.6372V19.7381L15.9531 16.332H17.4724L19.2956 18.7363L21.0681 16.332Z" fill="#BABABA"/>
<path d="M29.7773 16.332V21.5914H31.0434V19.5879H32.0057L33.525 21.5914H35.0443L33.4743 19.5378C34.1327 19.3374 34.6391 18.7363 34.6391 17.985C34.6391 17.0834 33.9301 16.332 33.0185 16.332H29.7773ZM31.0941 17.434H32.9173C33.1705 17.434 33.4237 17.6844 33.4237 17.9349C33.4237 18.1853 33.2211 18.4358 32.9173 18.4358H31.0941V17.434Z" fill="#BABABA"/>
<path d="M3.89844 16.332V21.5914H7.59542C8.507 21.5914 9.21602 20.8902 9.21602 19.9885C9.21602 19.5377 9.01343 19.137 8.70957 18.8365C8.91215 18.586 9.06404 18.2354 9.11469 17.8848C9.11469 17.0333 8.40569 16.332 7.54475 16.332H3.89844ZM5.11385 17.434H7.34216C7.59538 17.434 7.79801 17.6343 7.79801 17.8848C7.79801 18.1352 7.59538 18.3356 7.34216 18.3356H5.11385V17.434ZM5.11385 19.4375H7.39283C7.69669 19.4375 7.89927 19.6379 7.89927 19.9384C7.89927 20.239 7.69669 20.4393 7.39283 20.4393H5.11385V19.4375Z" fill="#BABABA"/>
<path d="M12.6101 16.332L9.97656 21.5914H11.344L11.7491 20.6898H14.7371L15.1422 21.5914H16.5096L13.8255 16.332H12.6101ZM13.2178 17.6845L14.1293 19.5879H12.3062L13.2178 17.6845Z" fill="#BABABA"/>
<path d="M28.1041 16.332V17.4626H24.5591V18.3473H28.0028V19.4778H24.5591V20.4609H28.1041V21.5914H23.293V16.332H28.1041Z" fill="#BABABA"/>
<path d="M16.8125 29.2578V34.5172H18.0786V32.5136H19.0408L20.5601 34.5172H22.0794L20.5095 32.4635C21.1678 32.2632 21.6743 31.6621 21.6743 30.9108C21.6743 30.0092 20.9653 29.2578 20.0537 29.2578H16.8125ZM18.1292 30.3598H19.9524C20.2057 30.3598 20.4589 30.6102 20.4589 30.8607C20.4589 31.1111 20.2563 31.3616 19.9524 31.3616H18.1292V30.3598Z" fill="#BABABA"/>
<path d="M21.6705 22.7305V23.861H18.1255V24.7457H21.5692V25.8763H18.1255V26.8593H21.6705V27.9898H16.8594V22.7305H21.6705Z" fill="#BABABA"/>
</g>
<g clip-path="url(#clip1_84_1175)">
<path d="M76.4751 28.2843V30.7045C76.1055 31.1002 75.7045 31.4126 75.3076 31.7284C72.8921 33.6531 70.2236 34.973 67.269 35.5709C63.6973 36.2937 60.1729 36.1236 56.7796 34.6285C52.2661 32.6396 49.293 29.0852 47.9825 24.0166C46.8157 19.5042 47.109 15.0673 49.154 10.8882C51.4393 6.21525 55.0528 3.35857 59.8242 2.22353C62.234 1.64994 64.6575 1.73584 67.085 2.1194C70.1947 2.61142 72.8889 4.05191 75.2626 6.23955C75.2923 6.26731 75.3148 6.30376 75.3735 6.37752C73.9721 8.2033 72.5683 10.0325 71.1517 11.8774C70.6181 11.4366 70.1191 11.0053 69.5944 10.6079C67.4417 8.97821 65.0311 8.34908 62.4461 8.57644C59.8531 8.80553 57.8202 10.1887 56.2911 12.4302C54.7981 14.6187 54.2477 17.104 54.4212 19.7923C54.5723 22.1361 55.2714 24.2587 56.7097 26.0463C58.3256 28.0552 60.3955 29.1112 62.8439 29.3048C64.9668 29.4731 67.0022 29.1112 68.9138 28.0647C69.2714 27.8695 69.6185 27.6517 69.9391 27.3688V22.6906H63.2183V16.4254C63.3678 16.3386 63.5173 16.3803 63.6603 16.3803C67.3292 16.3777 70.9974 16.3785 74.6663 16.3768C74.8262 16.3768 74.987 16.3638 75.1469 16.3568C75.5679 16.4019 75.9954 16.3247 76.4076 16.4019C76.4799 16.5781 76.4502 16.7378 76.4502 16.894C76.4518 20.5039 76.451 24.1129 76.4526 27.7228C76.4526 27.9094 76.4679 28.0968 76.4759 28.2834L76.4751 28.2843Z" fill="#61AF41"/>
<path d="M94.7465 22.3526C95.4391 20.5841 96.1294 18.8147 96.8252 17.0471C98.7135 12.2492 100.603 7.45223 102.493 2.65609C102.556 2.49815 102.627 2.34369 102.7 2.17188H108.911C113.263 13.2125 117.618 24.2626 121.994 35.3622H114.948C114.033 32.942 113.105 30.4879 112.17 28.0183H99.2511C98.3294 30.4567 97.4054 32.9012 96.4693 35.3795H92.5078V28.2508H96.5793V22.3535H94.7457L94.7465 22.3526ZM109.755 21.5595C108.409 18.0121 107.078 14.5046 105.711 10.9042C104.339 14.521 103.009 18.0259 101.669 21.5595H109.755Z" fill="#0C55DC"/>
<path d="M94.7531 22.3479H96.5868V28.2452H92.5153V35.3739C92.4165 35.4277 92.3112 35.4346 92.2027 35.4338C90.2107 35.4147 88.218 35.3964 86.226 35.3773C86.2003 35.3773 86.1746 35.3643 86.1015 35.3435V28.3806C85.9922 28.2426 85.907 28.2634 85.8291 28.2625C82.778 28.2617 79.7278 28.2617 76.6768 28.2625C76.6101 28.2625 76.5442 28.2747 76.4775 28.2808C76.4695 28.0942 76.455 27.9068 76.4542 27.7202C76.4526 24.1103 76.4542 20.5012 76.4518 16.8913C76.4518 16.736 76.4815 16.5755 76.4092 16.3993C75.997 16.3221 75.5695 16.3993 75.1484 16.3542C75.4249 15.8891 75.8057 15.5194 76.1416 15.109C78.1882 12.6115 80.2501 10.1271 82.3039 7.63662C83.727 5.91151 85.1452 4.18205 86.5659 2.45433C86.6543 2.34673 86.7459 2.24259 86.8166 2.16016H92.5105V22.3479H94.7531ZM86.0548 22.3409V12.1525C83.3485 15.5775 80.6985 18.9315 78.0042 22.3418H86.0548V22.3409Z" fill="#BABABA"/>
</g>
<defs>
<clipPath id="clip0_84_1175">
<rect width="38.4891" height="38.0678" fill="white"/>
</clipPath>
<clipPath id="clip1_84_1175">
<rect width="74.6968" height="34.1735" fill="white" transform="translate(47.3008 1.8125)"/>
</clipPath>
</defs>
</svg>
