<?xml version="1.0" encoding="UTF-8"?>
<svg id="Ebene_1" xmlns="http://www.w3.org/2000/svg" version="1.1" viewBox="0 0 629 213.9">
  <!-- Generator: Adobe Illustrator 29.8.4, SVG Export Plug-In . SVG Version: 2.1.1 Build 6)  -->
  <defs>
    <style>
      .st0 {
        fill: #626463;
      }

      .st1 {
        fill: #75b72c;
      }
    </style>
  </defs>
  <path class="st1" d="M286.9,123.9h-35.7c-1,0-1.9.3-2.6,1-.7.7-1,1.5-1,2.5v10.1c0,1,.3,1.8,1,2.5.7.7,1.5,1,2.6,1h13.3v2.6c0,5.8-1.7,10-5,12.8-3.4,2.8-7.8,4.2-13.4,4.2-11.5,0-17.6-6-18.1-18.1,0-2.6-.1-6.6-.1-11.9s0-9.4.1-11.9c.6-11.5,6.5-17.3,17.7-17.3s8.4,1,11.1,2.9c2.6,2,4.6,4.3,5.8,6.9.4.7.9,1.2,1.4,1.5.6.3,1.3.4,2.3.4h20.7c.9,0,1.6-.3,2.2-.8.6-.5.9-1.2.9-2.1-.2-4.7-2.1-9.2-5.6-13.6s-8.6-8-15.3-10.8c-6.7-2.8-14.5-4.2-23.5-4.2-13.3,0-23.9,3.2-31.7,9.5-7.8,6.3-11.9,15.2-12.4,26.8,0,2.6-.1,6.8-.1,12.6s0,10,.1,12.6c.5,11.9,4.5,21,12.2,27.5,7.7,6.4,18.3,9.7,31.9,9.7s16.8-1.5,23.6-4.5c6.8-3,12-7.3,15.7-12.9,3.7-5.6,5.5-12.3,5.5-20.1v-15.6c0-1-.3-1.8-1-2.5-.7-.7-1.5-1-2.6-1ZM388.1,119.5c-.4-12.1-4.5-21.3-12.3-27.9-7.8-6.5-18.3-9.8-31.3-9.8s-23.5,3.3-31.3,9.8c-7.8,6.5-11.9,15.8-12.4,27.9,0,2.6-.1,6.6-.1,11.9s0,9.1.1,11.8c.5,12.2,4.5,21.5,12.2,27.8,7.7,6.3,18.1,9.5,31.5,9.5s23.8-3.2,31.5-9.5c7.7-6.3,11.7-15.6,12.2-27.8.2-5.3.3-9.2.3-11.8s0-6.6-.3-11.9ZM361.8,142.4c-.2,6.2-1.8,10.8-4.9,13.8-3.1,3-7.2,4.5-12.4,4.5s-9.3-1.5-12.3-4.5c-3-3-4.7-7.6-5-13.8,0-2.6-.1-6.4-.1-11.2s0-8.7.1-11.2c.3-6.2,2-10.8,5-13.8,3.1-3,7.2-4.5,12.3-4.5s9.2,1.5,12.3,4.5,4.8,7.6,5,13.8c.2,5.1.3,8.9.3,11.2s0,5.9-.3,11.2ZM95,85.6c-24.9,12.9-34.7,43.5-21.9,68.4,12.9,24.9,43.5,34.7,68.4,21.9,24.9-12.9,34.7-43.5,21.9-68.4s-43.5-34.7-68.4-21.9Z"/>
  <path class="st0" d="M404.6,148.8h16.3c1,0,1.9-.3,2.6-1,.7-.7,1-1.5,1-2.4v-58.8c0-1-.3-1.8-1-2.5-.7-.6-1.5-1-2.6-1h-16.3c-.9,0-1.8.3-2.5,1-.7.6-1.1,1.5-1.1,2.5v58.8c0,.9.4,1.7,1.1,2.4.7.7,1.5,1,2.5,1ZM421.4,155.3h-17.4c-1,0-1.9.3-2.6,1-.7.7-1,1.5-1,2.5v16.8c0,1,.3,1.8,1,2.5.7.6,1.5,1,2.6,1h17.4c1,0,1.9-.3,2.6-1,.7-.7,1-1.5,1-2.4v-16.8c0-1-.4-1.8-1.1-2.5s-1.5-1-2.5-1ZM43.2,113.9c-10.4-4.3-22.3.6-26.7,11-4.3,10.4.6,22.3,11,26.7,10.4,4.3,22.3-.6,26.7-11,4.3-10.4-.6-22.3-11-26.7ZM73.2,179.3c-5.6-2.3-12,.3-14.3,5.9-2.3,5.6.3,12,5.9,14.3,5.6,2.3,12-.3,14.3-5.9,2.3-5.6-.3-12-5.9-14.3ZM83.3,18.1c-16.4-6.9-35.3.9-42.2,17.3-6.9,16.4.9,35.3,17.3,42.2,16.4,6.9,35.3-.9,42.2-17.3,6.9-16.4-.9-35.3-17.3-42.2Z"/>
  <g>
    <path class="st0" d="M448.7,100l2.5-.2c.1,1,.4,1.9.8,2.5s1.1,1.2,2,1.6c.9.4,2,.6,3.1.6s1.9-.2,2.7-.5c.8-.3,1.4-.7,1.8-1.3.4-.5.6-1.1.6-1.7s-.2-1.2-.6-1.7c-.4-.5-1-.9-1.8-1.2-.5-.2-1.8-.5-3.6-1-1.9-.4-3.2-.9-3.9-1.3-1-.5-1.7-1.1-2.2-1.9-.5-.8-.7-1.6-.7-2.5s.3-2,.9-2.9c.6-.9,1.4-1.6,2.6-2,1.1-.5,2.4-.7,3.7-.7s2.8.2,4,.7c1.2.5,2,1.2,2.7,2.1s1,2,1,3.2l-2.6.2c-.1-1.3-.6-2.3-1.4-2.9-.8-.7-2-1-3.5-1s-2.8.3-3.6.9c-.7.6-1.1,1.3-1.1,2.2s.3,1.3.8,1.8c.5.5,1.9,1,4.1,1.5,2.2.5,3.7.9,4.5,1.3,1.2.5,2.1,1.2,2.6,2.1.6.8.8,1.8.8,2.9s-.3,2.1-.9,3.1c-.6,1-1.5,1.7-2.7,2.2-1.2.5-2.5.8-3.9.8s-3.4-.3-4.6-.8c-1.2-.5-2.2-1.3-2.9-2.4s-1.1-2.3-1.1-3.7Z"/>
    <path class="st0" d="M473.7,104.3l.4,2.2c-.7.1-1.3.2-1.9.2-.9,0-1.6-.1-2.1-.4-.5-.3-.9-.7-1.1-1.1-.2-.5-.3-1.5-.3-2.9v-8.5h-1.8v-1.9h1.8v-3.7l2.5-1.5v5.1h2.5v1.9h-2.5v8.6c0,.7,0,1.2.1,1.4s.2.4.4.5c.2.1.5.2.9.2s.6,0,1.1,0Z"/>
    <path class="st0" d="M485.8,104.7c-.9.8-1.8,1.3-2.7,1.7s-1.8.5-2.8.5c-1.6,0-2.9-.4-3.7-1.2-.9-.8-1.3-1.8-1.3-3s.2-1.4.5-2c.3-.6.8-1.1,1.3-1.4s1.1-.6,1.8-.8c.5-.1,1.2-.3,2.2-.4,2-.2,3.5-.5,4.5-.9,0-.3,0-.6,0-.7,0-1-.2-1.7-.7-2.2-.6-.6-1.6-.8-2.8-.8s-2,.2-2.6.6c-.6.4-1,1.1-1.2,2.2l-2.4-.3c.2-1,.6-1.9,1.1-2.5s1.2-1.1,2.2-1.5c1-.3,2.1-.5,3.3-.5s2.3.1,3.1.4c.8.3,1.4.7,1.7,1.1s.6,1,.8,1.7c0,.4.1,1.2.1,2.3v3.3c0,2.3,0,3.8.2,4.4s.3,1.2.6,1.8h-2.6c-.3-.5-.4-1.1-.5-1.8ZM485.6,99.1c-.9.4-2.3.7-4.1.9-1,.1-1.8.3-2.2.5s-.8.5-1,.8c-.2.4-.3.8-.3,1.2,0,.7.3,1.2.8,1.7.5.4,1.2.7,2.2.7s1.8-.2,2.6-.6c.8-.4,1.3-1,1.7-1.7.3-.6.4-1.4.4-2.5v-.9Z"/>
    <path class="st0" d="M491.9,106.5v-14.7h2.2v2.2c.6-1,1.1-1.7,1.6-2.1.5-.3,1-.5,1.6-.5.8,0,1.7.3,2.6.8l-.9,2.3c-.6-.4-1.2-.5-1.8-.5s-1,.2-1.5.5c-.4.3-.7.8-.9,1.4-.3.9-.4,1.9-.4,2.9v7.7h-2.5Z"/>
    <path class="st0" d="M506.9,104.3l.4,2.2c-.7.1-1.3.2-1.9.2-.9,0-1.6-.1-2.1-.4-.5-.3-.9-.7-1.1-1.1-.2-.5-.3-1.5-.3-2.9v-8.5h-1.8v-1.9h1.8v-3.7l2.5-1.5v5.1h2.5v1.9h-2.5v8.6c0,.7,0,1.2.1,1.4s.2.4.4.5c.2.1.5.2.9.2s.6,0,1.1,0Z"/>
    <path class="st0" d="M519,106.5v-2.2c-1.1,1.7-2.7,2.5-4.7,2.5s-1.7-.2-2.4-.5c-.8-.3-1.3-.8-1.7-1.3-.4-.5-.6-1.1-.8-1.9-.1-.5-.2-1.3-.2-2.3v-9.1h2.5v8.2c0,1.3,0,2.2.2,2.6.2.7.5,1.2,1,1.5.5.4,1.1.6,1.9.6s1.5-.2,2.1-.6c.7-.4,1.1-.9,1.4-1.6.3-.7.4-1.6.4-2.9v-7.9h2.5v14.7h-2.2Z"/>
    <path class="st0" d="M525.1,112.1v-20.4h2.3v1.9c.5-.7,1.1-1.3,1.8-1.7.7-.4,1.5-.6,2.5-.6s2.4.3,3.3,1c1,.6,1.7,1.6,2.2,2.7.5,1.2.7,2.5.7,3.9s-.3,2.9-.8,4.1c-.5,1.2-1.3,2.1-2.4,2.8-1,.6-2.1,1-3.3,1s-1.6-.2-2.2-.5c-.7-.4-1.2-.8-1.6-1.3v7.2h-2.5ZM527.4,99.2c0,1.9.4,3.3,1.2,4.2.8.9,1.7,1.4,2.8,1.4s2.1-.5,2.9-1.4c.8-.9,1.2-2.4,1.2-4.4s-.4-3.3-1.2-4.2-1.7-1.4-2.8-1.4-2,.5-2.8,1.5c-.8,1-1.2,2.4-1.2,4.3Z"/>
    <path class="st0" d="M450.1,140.6v-20.3h2.7v20.3h-2.7Z"/>
    <path class="st0" d="M457.2,140.6v-14.7h2.2v2.1c1.1-1.6,2.6-2.4,4.7-2.4s1.7.2,2.5.5c.7.3,1.3.7,1.7,1.3.4.5.6,1.1.8,1.8,0,.5.1,1.3.1,2.4v9.1h-2.5v-9c0-1,0-1.8-.3-2.3-.2-.5-.5-.9-1-1.2-.5-.3-1.1-.5-1.7-.5-1.1,0-2,.3-2.8,1-.8.7-1.2,2-1.2,3.8v8.1h-2.5Z"/>
    <path class="st0" d="M482.6,135.2l2.5.3c-.3,1.7-1,3-2.1,4-1.1,1-2.5,1.4-4.1,1.4s-3.6-.7-4.9-2c-1.2-1.3-1.8-3.2-1.8-5.7s.3-3,.8-4.2c.5-1.2,1.3-2.1,2.4-2.7,1.1-.6,2.3-.9,3.5-.9s2.9.4,3.9,1.2c1,.8,1.7,2,2,3.4l-2.4.4c-.2-1-.6-1.7-1.2-2.2s-1.3-.7-2.1-.7c-1.3,0-2.3.5-3.1,1.4-.8.9-1.2,2.3-1.2,4.3s.4,3.4,1.1,4.3,1.7,1.3,3,1.3,1.8-.3,2.5-.9,1.1-1.5,1.2-2.8Z"/>
    <path class="st0" d="M496.9,140.6v-2.2c-1.1,1.7-2.7,2.5-4.7,2.5s-1.7-.2-2.4-.5c-.8-.3-1.3-.8-1.7-1.3-.4-.5-.6-1.1-.8-1.9-.1-.5-.2-1.3-.2-2.3v-9.1h2.5v8.2c0,1.3,0,2.2.2,2.6.2.7.5,1.2,1,1.5.5.4,1.1.6,1.9.6s1.5-.2,2.1-.6c.7-.4,1.1-.9,1.4-1.6.3-.7.4-1.6.4-2.9v-7.9h2.5v14.7h-2.2Z"/>
    <path class="st0" d="M505.3,140.6h-2.3v-20.3h2.5v7.3c1.1-1.3,2.4-2,4-2s1.8.2,2.6.5,1.5.9,2,1.5c.5.7.9,1.5,1.2,2.4.3.9.4,1.9.4,3,0,2.5-.6,4.5-1.9,5.9s-2.7,2.1-4.5,2.1-3.1-.7-4.1-2.2v1.8ZM505.3,133.1c0,1.8.2,3,.7,3.8.8,1.3,1.9,1.9,3.2,1.9s2-.5,2.8-1.4c.8-.9,1.2-2.4,1.2-4.2s-.4-3.3-1.1-4.3c-.8-.9-1.7-1.4-2.8-1.4s-2,.5-2.8,1.4c-.8.9-1.2,2.3-1.2,4.1Z"/>
    <path class="st0" d="M528.5,138.8c-.9.8-1.8,1.3-2.7,1.7s-1.8.5-2.8.5c-1.6,0-2.9-.4-3.7-1.2-.9-.8-1.3-1.8-1.3-3s.2-1.4.5-2c.3-.6.8-1.1,1.3-1.4s1.1-.6,1.8-.8c.5-.1,1.2-.3,2.2-.4,2-.2,3.5-.5,4.5-.9,0-.3,0-.6,0-.7,0-1-.2-1.7-.7-2.2-.6-.6-1.6-.8-2.8-.8s-2,.2-2.6.6c-.6.4-1,1.1-1.2,2.2l-2.4-.3c.2-1,.6-1.9,1.1-2.5s1.2-1.1,2.2-1.5c1-.3,2.1-.5,3.3-.5s2.3.1,3.1.4c.8.3,1.4.7,1.7,1.1s.6,1,.8,1.7c0,.4.1,1.2.1,2.3v3.3c0,2.3,0,3.8.2,4.4s.3,1.2.6,1.8h-2.6c-.3-.5-.4-1.1-.5-1.8ZM528.3,133.2c-.9.4-2.3.7-4.1.9-1,.1-1.8.3-2.2.5s-.8.5-1,.8c-.2.4-.3.8-.3,1.2,0,.7.3,1.2.8,1.7.5.4,1.2.7,2.2.7s1.8-.2,2.6-.6c.8-.4,1.3-1,1.7-1.7.3-.6.4-1.4.4-2.5v-.9Z"/>
    <path class="st0" d="M540.1,138.4l.4,2.2c-.7.1-1.3.2-1.9.2-.9,0-1.6-.1-2.1-.4-.5-.3-.9-.7-1.1-1.1-.2-.5-.3-1.5-.3-2.9v-8.5h-1.8v-1.9h1.8v-3.7l2.5-1.5v5.1h2.5v1.9h-2.5v8.6c0,.7,0,1.2.1,1.4s.2.4.4.5c.2.1.5.2.9.2s.6,0,1.1,0Z"/>
    <path class="st0" d="M541.6,133.2c0-2.7.8-4.8,2.3-6.1,1.3-1.1,2.8-1.6,4.6-1.6s3.7.7,5,2c1.3,1.3,1.9,3.2,1.9,5.5s-.3,3.4-.9,4.5-1.4,1.9-2.5,2.5c-1.1.6-2.3.9-3.6.9-2.1,0-3.7-.7-5-2-1.3-1.3-1.9-3.2-1.9-5.7ZM544.2,133.2c0,1.9.4,3.3,1.2,4.2.8.9,1.9,1.4,3.1,1.4s2.3-.5,3.1-1.4c.8-.9,1.2-2.4,1.2-4.3s-.4-3.2-1.2-4.1c-.8-.9-1.9-1.4-3.1-1.4s-2.3.5-3.1,1.4c-.8.9-1.2,2.3-1.2,4.2Z"/>
    <path class="st0" d="M558.3,140.6v-14.7h2.2v2.2c.6-1,1.1-1.7,1.6-2.1.5-.3,1-.5,1.6-.5.8,0,1.7.3,2.6.8l-.9,2.3c-.6-.4-1.2-.5-1.8-.5s-1,.2-1.5.5c-.4.3-.7.8-.9,1.4-.3.9-.4,1.9-.4,2.9v7.7h-2.5Z"/>
    <path class="st0" d="M448.8,164.8c0-3.4.9-6,2.7-7.9,1.8-1.9,4.2-2.9,7-2.9s3.6.4,5.1,1.3,2.7,2.1,3.4,3.8,1.2,3.4,1.2,5.5-.4,3.9-1.2,5.5c-.8,1.6-2,2.9-3.5,3.7-1.5.8-3.2,1.3-4.9,1.3s-3.6-.5-5.1-1.4c-1.5-.9-2.7-2.2-3.4-3.8s-1.2-3.3-1.2-5.1ZM451.6,164.8c0,2.5.7,4.4,2,5.8s3,2.1,5,2.1,3.7-.7,5-2.1c1.3-1.4,2-3.4,2-6.1s-.3-3.1-.8-4.3c-.6-1.2-1.4-2.2-2.5-2.9s-2.3-1-3.6-1c-1.9,0-3.5.7-4.9,2-1.4,1.3-2.1,3.5-2.1,6.6Z"/>
    <path class="st0" d="M471.4,174.7v-20.3h2.5v20.3h-2.5Z"/>
    <path class="st0" d="M487.3,174.7v-1.9c-.9,1.5-2.3,2.2-4.1,2.2s-2.3-.3-3.2-1c-1-.6-1.7-1.6-2.3-2.7-.5-1.2-.8-2.5-.8-4s.2-2.8.7-4,1.2-2.1,2.2-2.8c1-.6,2.1-1,3.3-1s1.7.2,2.4.6c.7.4,1.3.9,1.7,1.5v-7.3h2.5v20.3h-2.3ZM479.4,167.4c0,1.9.4,3.3,1.2,4.2.8.9,1.7,1.4,2.8,1.4s2-.4,2.8-1.3c.8-.9,1.1-2.3,1.1-4.1s-.4-3.5-1.2-4.4-1.7-1.4-2.9-1.4-2,.5-2.8,1.4c-.7.9-1.1,2.3-1.1,4.3Z"/>
    <path class="st0" d="M503.6,170l2.6.3c-.4,1.5-1.2,2.7-2.3,3.5-1.1.8-2.5,1.2-4.2,1.2s-3.9-.7-5.1-2c-1.3-1.3-1.9-3.2-1.9-5.6s.6-4.4,1.9-5.8c1.3-1.4,2.9-2.1,5-2.1s3.6.7,4.8,2c1.2,1.3,1.9,3.2,1.9,5.7s0,.4,0,.7h-11c0,1.6.5,2.9,1.4,3.7.8.9,1.9,1.3,3.1,1.3s1.7-.2,2.3-.7c.6-.5,1.2-1.2,1.5-2.3ZM495.4,165.9h8.2c-.1-1.2-.4-2.2-.9-2.8-.8-1-1.8-1.4-3.1-1.4s-2.1.4-2.9,1.2c-.8.8-1.2,1.8-1.3,3.1Z"/>
    <path class="st0" d="M509.3,174.7v-14.7h2.2v2.1c1.1-1.6,2.6-2.4,4.7-2.4s1.7.2,2.5.5c.7.3,1.3.7,1.7,1.3.4.5.6,1.1.8,1.8,0,.5.1,1.3.1,2.4v9.1h-2.5v-9c0-1,0-1.8-.3-2.3-.2-.5-.5-.9-1-1.2-.5-.3-1.1-.5-1.7-.5-1.1,0-2,.3-2.8,1s-1.2,2-1.2,3.8v8h-2.5Z"/>
    <path class="st0" d="M527.5,174.7h-2.3v-20.3h2.5v7.3c1.1-1.3,2.4-2,4-2s1.8.2,2.6.5,1.5.9,2,1.5c.5.7.9,1.5,1.2,2.4.3.9.4,1.9.4,3,0,2.5-.6,4.5-1.9,5.9-1.2,1.4-2.7,2.1-4.5,2.1s-3.1-.7-4.1-2.2v1.8ZM527.4,167.2c0,1.8.2,3,.7,3.8.8,1.3,1.9,1.9,3.2,1.9s2-.5,2.8-1.4,1.2-2.4,1.2-4.2-.4-3.3-1.1-4.3c-.8-.9-1.7-1.4-2.8-1.4s-2,.5-2.8,1.4-1.2,2.3-1.2,4.1Z"/>
    <path class="st0" d="M550.6,174.7v-2.2c-1.1,1.7-2.7,2.5-4.7,2.5s-1.7-.2-2.4-.5c-.8-.3-1.3-.8-1.7-1.3-.4-.5-.6-1.1-.8-1.9-.1-.5-.2-1.3-.2-2.3v-9.1h2.5v8.2c0,1.3,0,2.2.2,2.6.2.7.5,1.2,1,1.5.5.4,1.1.6,1.9.6s1.5-.2,2.1-.6c.7-.4,1.1-.9,1.4-1.6.3-.7.4-1.6.4-2.9v-7.9h2.5v14.7h-2.2Z"/>
    <path class="st0" d="M556.7,174.7v-14.7h2.2v2.2c.6-1,1.1-1.7,1.6-2.1.5-.3,1-.5,1.6-.5.8,0,1.7.3,2.6.8l-.9,2.3c-.6-.4-1.2-.5-1.8-.5s-1,.2-1.5.5c-.4.3-.7.8-.9,1.4-.3.9-.4,1.9-.4,2.9v7.7h-2.5Z"/>
    <path class="st0" d="M565.8,175.9l2.4.4c.1.8.4,1.3.8,1.6.6.5,1.5.7,2.5.7s2-.2,2.7-.7c.6-.5,1.1-1.1,1.3-1.9.1-.5.2-1.6.2-3.2-1.1,1.3-2.5,1.9-4.1,1.9s-3.6-.7-4.7-2.2c-1.1-1.5-1.7-3.2-1.7-5.3s.3-2.7.8-3.9c.5-1.2,1.2-2.1,2.2-2.8,1-.6,2.1-1,3.4-1s3.2.7,4.3,2.1v-1.8h2.3v12.7c0,2.3-.2,3.9-.7,4.9-.5,1-1.2,1.7-2.2,2.3-1,.6-2.3.8-3.7.8s-3.2-.4-4.3-1.2c-1.1-.8-1.6-2-1.6-3.6ZM567.9,167.1c0,1.9.4,3.3,1.2,4.2.8.9,1.7,1.3,2.9,1.3s2.1-.4,2.9-1.3c.8-.9,1.2-2.3,1.2-4.2s-.4-3.2-1.2-4.1c-.8-.9-1.8-1.4-2.9-1.4s-2.1.5-2.8,1.4c-.8.9-1.2,2.2-1.2,4Z"/>
  </g>
</svg>