<svg xmlns="http://www.w3.org/2000/svg" xmlns:xlink="http://www.w3.org/1999/xlink" width="376" height="399.095" viewBox="0 0 376 399.095">
  <defs>
    <filter id="Pfad_802" x="0" y="0" width="376" height="399.095" filterUnits="userSpaceOnUse">
      <feOffset dy="10" input="SourceAlpha"/>
      <feGaussianBlur stdDeviation="10" result="blur"/>
      <feFlood flood-opacity="0.161"/>
      <feComposite operator="in" in2="blur"/>
      <feComposite in="SourceGraphic"/>
    </filter>
    <linearGradient id="linear-gradient" x1="1.295" y1="1.097" x2="0.254" y2="0.203" gradientUnits="objectBoundingBox">
      <stop offset="0" stop-color="#005a31"/>
      <stop offset="0.143" stop-color="#e85b46"/>
      <stop offset="0.318" stop-color="#683059"/>
      <stop offset="0.483" stop-color="#494174"/>
      <stop offset="0.626" stop-color="#3cb4d0"/>
      <stop offset="0.828" stop-color="#f4851d"/>
      <stop offset="1" stop-color="#00527d"/>
    </linearGradient>
    <linearGradient id="linear-gradient-2" x1="1.081" y1="0.871" x2="-0.278" y2="-0.071" xlink:href="#linear-gradient"/>
  </defs>
  <g id="Start_Up_Lounge_Logo" transform="translate(30 20)">
    <g transform="matrix(1, 0, 0, 1, -30, -20)" filter="url(#Pfad_802)">
      <path id="Pfad_802-2" data-name="Pfad 802" d="M296.8,73.673,221.844,30.568,198.727,18.756l-1.357-.439a72.49,72.49,0,0,0-58.573,6.1L53.141,73.672a72.208,72.208,0,0,0-36.172,62.4v98.518A72.2,72.2,0,0,0,53.141,297l35.887,20.64,4.87,2.8V327.3a26.634,26.634,0,0,0,26.657,26.553H229.384A26.635,26.635,0,0,0,256.041,327.3v-6.865l4.869-2.8L296.8,297a72.2,72.2,0,0,0,36.172-62.4V136.077A72.2,72.2,0,0,0,296.8,73.673Z" transform="translate(13.03 5.24)" fill="#fff"/>
    </g>
    <g id="Gruppe_923" data-name="Gruppe 923" transform="translate(17.975 17.904)">
      <g id="Gruppe_917" data-name="Gruppe 917">
        <path id="Pfad_803" data-name="Pfad 803" d="M92.87,278.1l-22.7-13.056A36.273,36.273,0,0,1,52,233.691V135.173a36.272,36.272,0,0,1,18.17-31.348l85.656-49.259.021-.011,34.985-20.12a54.459,54.459,0,0,0-44.02,4.579L61.153,88.274a54.116,54.116,0,0,0-27.184,46.9v98.518a54.116,54.116,0,0,0,27.184,46.9L92.87,298.829Z" transform="translate(-33.969 -31.76)" fill="url(#linear-gradient)"/>
        <path id="Pfad_804" data-name="Pfad 804" d="M278.165,87.6l-74.954-43.1L185.183,54.86l83.968,48.288A36.272,36.272,0,0,1,287.321,134.5v98.518a36.273,36.273,0,0,1-18.171,31.349l-22.7,13.056v20.734l31.717-18.239a54.116,54.116,0,0,0,27.184-46.9V134.5A54.116,54.116,0,0,0,278.165,87.6Z" transform="translate(-25.298 -31.083)" fill="url(#linear-gradient-2)"/>
      </g>
      <g id="Gruppe_918" data-name="Gruppe 918" transform="translate(76.929 238.552)">
        <path id="Pfad_805" data-name="Pfad 805" d="M232.919,301.941H106.726V258.268H232.919v43.673Z" transform="translate(-106.726 -258.268)" fill="#bf0012"/>
        <path id="Pfad_806" data-name="Pfad 806" d="M223.155,294.64c1.666,0,2.455-.787,2.455-2.4V290.1a2.143,2.143,0,0,0-2.455-2.445h-9.823V283.2h7.191c1.666,0,2.456-.787,2.456-2.4v-2.141a2.143,2.143,0,0,0-2.456-2.445h-7.191v-4.281h8.506c1.667,0,2.456-.786,2.456-2.4v-2.141a2.143,2.143,0,0,0-2.456-2.445h-15.3a2.13,2.13,0,0,0-2.413,2.445v24.854a2.117,2.117,0,0,0,2.413,2.4ZM187.987,267.3c-.351-1.66-1.185-2.358-3.026-2.358h-3.728c-1.842,0-2.674.7-3.025,2.358l-2.982,14.59h-.088l-2.412-14.59c-.263-1.66-1.1-2.358-3.026-2.358h-3.6c-1.491,0-2.324.655-2.324,1.965a4.176,4.176,0,0,0,.132.962l5.744,24.372c.4,1.615,1.184,2.4,3.245,2.4h3.6c1.842,0,2.675-.7,3.026-2.359l3.288-15.943h.089l3.288,15.943c.351,1.66,1.184,2.359,3.026,2.359h3.6c2.062,0,2.851-.787,3.245-2.4l5.744-24.372a4.172,4.172,0,0,0,.132-.962c0-1.31-.878-1.965-2.324-1.965h-3.069c-1.93,0-2.763.7-3.026,2.358l-2.412,14.59h-.088l-3.025-14.59ZM160.447,294.64c1.666,0,2.456-.787,2.456-2.4V290.1a2.144,2.144,0,0,0-2.456-2.445h-9.823V283.2h7.192c1.666,0,2.455-.787,2.455-2.4v-2.141a2.143,2.143,0,0,0-2.455-2.445h-7.192v-4.281h8.507c1.666,0,2.455-.786,2.455-2.4v-2.141a2.143,2.143,0,0,0-2.455-2.445h-15.3a2.129,2.129,0,0,0-2.412,2.445v24.854a2.116,2.116,0,0,0,2.412,2.4Zm-38.063-16.685v-6.2h1.93c2.587,0,3.684,1.091,3.684,3.1s-1.1,3.1-3.684,3.1Zm-2.455,16.685c1.666,0,2.455-.787,2.455-2.4v-8.824h.088l5.175,8.867c.965,1.66,1.8,2.359,3.289,2.359h5.218c1.272,0,2.324-.48,2.324-1.485a2.9,2.9,0,0,0-.527-1.442l-6.4-9.434c4.123-1.529,5.92-4.456,5.92-7.949,0-5.9-3.508-9.391-12.717-9.391h-8.99a2.13,2.13,0,0,0-2.412,2.445v24.854a2.117,2.117,0,0,0,2.412,2.4Z" transform="translate(-106.346 -257.913)" fill="#fff"/>
      </g>
      <g id="Gruppe_919" data-name="Gruppe 919" transform="translate(94.957 289.215)">
        <path id="Pfad_807" data-name="Pfad 807" d="M124.383,320.57a.609.609,0,0,1-.607-.606v-12.3a.608.608,0,0,1,.607-.6h3.391c3.039,0,4.488,1.288,4.488,3.806,0,2.147-.862,3.1-2.489,3.553.785.274,1.294,1.015,1.745,2.382l1.039,3.2a.432.432,0,0,1-.412.567h-1.352a.816.816,0,0,1-.783-.586l-1.019-3.24c-.471-1.5-.941-1.817-1.9-1.817h-.941v5.037a.609.609,0,0,1-.607.606Zm1.764-7.459h1.666c1.49,0,1.96-.683,1.96-2.147,0-1.367-.529-1.914-1.979-1.914h-1.647Z" transform="translate(-123.776 -306.337)" fill="#2f2d2e"/>
        <path id="Pfad_808" data-name="Pfad 808" d="M138.085,320.653c-2.96,0-4.43-1.5-4.43-5.213,0-3.748,1.529-5.174,4.019-5.174,2.666,0,3.92,1.484,3.92,5.1v.371a.347.347,0,0,1-.332.352h-5.234c.078,2.264.627,2.772,2.039,2.772a3.168,3.168,0,0,0,1.784-.527.623.623,0,0,1,.843.176l.372.527a.6.6,0,0,1-.156.839A5.015,5.015,0,0,1,138.085,320.653Zm-.392-8.728c-1,0-1.529.508-1.646,2.577H139.3C139.281,312.589,138.928,311.926,137.693,311.926Z" transform="translate(-123.21 -306.167)" fill="#2f2d2e"/>
        <path id="Pfad_809" data-name="Pfad 809" d="M146.816,324.148c-2.843,0-4.077-.956-4.077-2.6a2.169,2.169,0,0,1,1.293-1.933,1.717,1.717,0,0,1-.785-1.5,2.354,2.354,0,0,1,1.078-2.012,2.95,2.95,0,0,1-1.215-2.616c0-2.088,1.294-3.222,3.724-3.222a4.829,4.829,0,0,1,1.587.254h2.353a.6.6,0,0,1,.589.586v.039a.8.8,0,0,1-.569.762l-.569.195a3.538,3.538,0,0,1,.333,1.523c0,2.089-1.234,3.085-3.7,3.085a6.846,6.846,0,0,1-1.156-.1,1.632,1.632,0,0,0-.431.957c0,.273.2.488.666.488h1.8c2.078,0,3.489.839,3.489,2.812C151.226,323,149.873,324.148,146.816,324.148Zm-1.588-4.159a1.9,1.9,0,0,0-.431,1.27c0,.858.294,1.327,2.058,1.327,1.412,0,2.137-.527,2.137-1.484,0-.9-.569-1.113-1.7-1.113Zm1.607-4.8c1.118,0,1.549-.488,1.549-1.621,0-1.171-.392-1.659-1.549-1.659-1.058,0-1.509.488-1.509,1.659C145.326,314.679,145.757,315.186,146.835,315.186Z" transform="translate(-122.689 -306.167)" fill="#2f2d2e"/>
        <path id="Pfad_810" data-name="Pfad 810" d="M154.056,320.606a.61.61,0,0,1-.608-.606v-7.594l-.705-.118a.735.735,0,0,1-.588-.723v-.234a.61.61,0,0,1,.608-.606h2.293a.61.61,0,0,1,.608.606V320a.61.61,0,0,1-.608.606Zm.471-11.363a1.407,1.407,0,0,1-1.411-1.426,1.431,1.431,0,1,1,1.411,1.426Z" transform="translate(-122.149 -306.374)" fill="#2f2d2e"/>
        <path id="Pfad_811" data-name="Pfad 811" d="M161.946,320.653c-2.567,0-4.174-1.5-4.174-5.213,0-3.729,1.587-5.174,4.155-5.174s4.194,1.484,4.194,5.193S164.515,320.653,161.946,320.653Zm0-1.679c1.294,0,1.784-.742,1.784-3.534,0-2.831-.509-3.494-1.8-3.494s-1.784.683-1.784,3.513C160.144,318.252,160.653,318.975,161.946,318.975Z" transform="translate(-121.827 -306.167)" fill="#2f2d2e"/>
        <path id="Pfad_812" data-name="Pfad 812" d="M168.5,320.4a.609.609,0,0,1-.607-.606v-8.669a.609.609,0,0,1,.607-.606h.569a.777.777,0,0,1,.745.586l.1.489a4.062,4.062,0,0,1,2.92-1.328c1.568,0,2.49.722,2.49,2.577v6.951a.61.61,0,0,1-.608.606h-1.019a.61.61,0,0,1-.608-.606V313.41c0-1.034-.333-1.288-1.057-1.288a2.912,2.912,0,0,0-1.9.878v6.794a.61.61,0,0,1-.608.606Z" transform="translate(-121.246 -306.167)" fill="#2f2d2e"/>
        <path id="Pfad_813" data-name="Pfad 813" d="M185.722,320.837a7.377,7.377,0,0,1-3.7-.956.658.658,0,0,1-.255-.859l.353-.7a.563.563,0,0,1,.783-.235,4.638,4.638,0,0,0,2.626.741c1.568,0,2.215-.723,2.215-1.894,0-1.366-.764-1.757-2.2-2.265-2.254-.78-3.47-1.659-3.47-4.119,0-2.518,1.608-3.729,4.039-3.729a6.016,6.016,0,0,1,2.939.626.617.617,0,0,1,.275.819l-.353.723a.587.587,0,0,1-.8.254,3.932,3.932,0,0,0-1.882-.43c-1.156,0-1.842.508-1.842,1.6,0,1.131.431,1.522,1.862,2.01,2.136.741,3.881,1.484,3.881,4.335C190.191,319.04,189.092,320.837,185.722,320.837Z" transform="translate(-120.455 -306.35)" fill="#2f2d2e"/>
        <path id="Pfad_814" data-name="Pfad 814" d="M194.693,320.834a2.452,2.452,0,0,1-2.647-2.7v-6.833a.61.61,0,0,1,.608-.606h1.018a.61.61,0,0,1,.608.606v6.306c0,1.054.392,1.366,1.118,1.366a3.029,3.029,0,0,0,1.9-.9v-6.775a.61.61,0,0,1,.608-.606h1a.609.609,0,0,1,.608.606v8.669a.61.61,0,0,1-.608.606h-.568a.737.737,0,0,1-.725-.585l-.117-.508A3.724,3.724,0,0,1,194.693,320.834Zm-.883-11.3a1.344,1.344,0,0,1-1.332-1.328,1.327,1.327,0,0,1,1.313-1.327,1.328,1.328,0,0,1,.019,2.655Zm3.98,0a1.344,1.344,0,0,1-1.333-1.328,1.328,1.328,0,0,1,1.313-1.327,1.328,1.328,0,0,1,.02,2.655Z" transform="translate(-119.861 -306.347)" fill="#2f2d2e"/>
        <path id="Pfad_815" data-name="Pfad 815" d="M204.836,320.859c-2,0-3.411-1.133-3.411-5.115,0-3.925,1.077-5.272,3.352-5.272a3.663,3.663,0,0,1,2.451,1.055V307a.609.609,0,0,1,.607-.606h1.019a.609.609,0,0,1,.607.606v13a.609.609,0,0,1-.607.606h-.569a.818.818,0,0,1-.764-.586l-.1-.391A3.411,3.411,0,0,1,204.836,320.859Zm.51-1.836a2.535,2.535,0,0,0,1.882-.8v-5.115a2.632,2.632,0,0,0-1.746-.821c-1.234,0-1.666.548-1.666,3.378C203.816,318.477,204.189,319.024,205.346,319.024Z" transform="translate(-119.324 -306.373)" fill="#2f2d2e"/>
      </g>
      <g id="Gruppe_922" data-name="Gruppe 922" transform="translate(37.883 108.448)">
        <g id="Gruppe_920" data-name="Gruppe 920" transform="translate(0 43.023)">
          <path id="Pfad_816" data-name="Pfad 816" d="M77.424,176.371a1.934,1.934,0,0,1,2.149,2.141v34.174H94.059a1.893,1.893,0,0,1,2.08,2.072v4.7a1.914,1.914,0,0,1-2.08,2.14H71.879a1.915,1.915,0,0,1-2.081-2.14V178.512a1.915,1.915,0,0,1,2.081-2.141Z" transform="translate(-69.798 -175.542)" fill="#683059"/>
          <path id="Pfad_817" data-name="Pfad 817" d="M128.6,191.118v15.811c0,9.734-4.852,15.534-15.943,15.534-11.159,0-15.942-5.8-15.942-15.534V191.118c0-10.01,4.92-15.534,15.942-15.534C123.544,175.584,128.6,181.108,128.6,191.118Zm-22.112-.62v16.915c0,4.073,2.08,6.214,6.17,6.214,4.021,0,6.169-2.141,6.169-6.214V190.566c0-4-2.079-6.144-6.169-6.144C108.5,184.422,106.492,186.493,106.492,190.5Z" transform="translate(-68.254 -175.584)" fill="#683059"/>
          <path id="Pfad_818" data-name="Pfad 818" d="M161.19,176.371a1.914,1.914,0,0,1,2.08,2.141v28.306c0,9.735-4.783,15.6-15.666,15.6-10.675,0-15.6-5.73-15.6-15.534V178.512a1.915,1.915,0,0,1,2.081-2.141h5.545a1.934,1.934,0,0,1,2.149,2.141v28.859c0,4.073,2.08,6.214,5.823,6.214,3.813,0,5.892-2.141,5.892-6.214V178.512a1.914,1.914,0,0,1,2.08-2.141Z" transform="translate(-66.231 -175.542)" fill="#683059"/>
          <path id="Pfad_819" data-name="Pfad 819" d="M189.534,221.593a2.324,2.324,0,0,1-2.427-1.726l-9.5-26.373v25.96a1.913,1.913,0,0,1-2.079,2.14h-5.2a1.914,1.914,0,0,1-2.08-2.14V178.512a1.915,1.915,0,0,1,2.08-2.141h8.6a2.324,2.324,0,0,1,2.426,1.726l9.15,26.373V178.512a1.965,1.965,0,0,1,2.149-2.141h5.129a1.934,1.934,0,0,1,2.15,2.141v40.941a1.934,1.934,0,0,1-2.15,2.14Z" transform="translate(-64.152 -175.542)" fill="#683059"/>
          <path id="Pfad_820" data-name="Pfad 820" d="M230.684,176.827a2.053,2.053,0,0,1,1.871,2.279l-.069,4.488c-.07,1.449-.9,2.14-2.288,1.864a71.193,71.193,0,0,0-10.4-1.1c-4.714,0-6.378,1.658-6.378,5.868v17.4c0,4.281,1.734,6.007,6.031,6.007a35.32,35.32,0,0,0,5.406-.483V202.994h-3.812a1.914,1.914,0,0,1-2.08-2.14v-4.419a1.914,1.914,0,0,1,2.08-2.14h11.09a1.914,1.914,0,0,1,2.079,2.14v21.058c0,1.449-.416,2.21-2.079,2.692a48.213,48.213,0,0,1-13.1,2.279c-11.369,0-15.388-4.9-15.388-14.775v-17.33c0-10.148,4.3-14.775,15.663-14.775A69.7,69.7,0,0,1,230.684,176.827Z" transform="translate(-62.123 -175.584)" fill="#683059"/>
          <path id="Pfad_821" data-name="Pfad 821" d="M262.248,176.371a1.914,1.914,0,0,1,2.079,2.141v4.763a1.893,1.893,0,0,1-2.079,2.071H247.968v8.838h12.893a1.893,1.893,0,0,1,2.08,2.071v4.695a1.914,1.914,0,0,1-2.08,2.14H247.968v9.528h14.281a1.893,1.893,0,0,1,2.079,2.072v4.763a1.913,1.913,0,0,1-2.079,2.14H240.275a1.913,1.913,0,0,1-2.079-2.14V178.512a1.914,1.914,0,0,1,2.079-2.141Z" transform="translate(-60.142 -175.542)" fill="#683059"/>
        </g>
        <g id="Gruppe_921" data-name="Gruppe 921">
          <path id="Pfad_822" data-name="Pfad 822" d="M87.33,135.511a1.33,1.33,0,0,1,1.224,1.5v1.386A1.184,1.184,0,0,1,87,139.613a38.285,38.285,0,0,0-6.4-.72c-4.451,0-6.066,1.774-6.066,5.155v1.441c0,2.661.778,3.6,4.509,4.768l5.176,1.719c4.953,1.663,6.79,4.1,6.79,9.535v1.053c0,6.32-3.284,9.812-11.688,9.812a34.755,34.755,0,0,1-7.626-1.053,1.412,1.412,0,0,1-1.224-1.552v-1.5a1.136,1.136,0,0,1,1.559-1.221,30.362,30.362,0,0,0,7.179,1.054c5.176,0,7.068-1.775,7.068-5.156v-1.829c0-2.55-.946-3.769-3.9-4.712l-5.732-1.885c-5.121-1.663-6.846-3.936-6.846-9.424v-.61c0-6.264,3.118-9.757,10.8-9.757A37.411,37.411,0,0,1,87.33,135.511Z" transform="translate(-69.798 -134.733)" fill="#683059"/>
          <path id="Pfad_823" data-name="Pfad 823" d="M116.394,135.366a1.26,1.26,0,0,1,1.393,1.386v1.5a1.259,1.259,0,0,1-1.393,1.385h-9.182v30.657a1.259,1.259,0,0,1-1.391,1.386h-1.949a1.259,1.259,0,0,1-1.392-1.386V139.634H93.3a1.258,1.258,0,0,1-1.391-1.385v-1.5a1.259,1.259,0,0,1,1.391-1.386Z" transform="translate(-68.53 -134.699)" fill="#683059"/>
          <path id="Pfad_824" data-name="Pfad 824" d="M130.479,135.366a1.46,1.46,0,0,1,1.557,1.165l10.352,33.594c.334.943-.055,1.552-1.112,1.552H139a1.46,1.46,0,0,1-1.558-1.165l-2.06-7.262H121.964l-2.059,7.262a1.462,1.462,0,0,1-1.559,1.165h-2c-1.057,0-1.448-.61-1.113-1.552l10.3-33.594a1.462,1.462,0,0,1,1.559-1.165Zm-7.346,23.672h11.076L128.7,139.69Z" transform="translate(-67.2 -134.699)" fill="#683059"/>
          <path id="Pfad_825" data-name="Pfad 825" d="M167.763,144.436v1.386a9.21,9.21,0,0,1-6.9,9.148l8.516,15.078c.556.943.166,1.663-.946,1.663H166.15a1.735,1.735,0,0,1-1.671-.942l-8.293-14.8a48.433,48.433,0,0,1-6.177-.111v14.468a1.259,1.259,0,0,1-1.391,1.386h-1.949a1.259,1.259,0,0,1-1.391-1.386V136.4a1.26,1.26,0,0,1,1.337-1.441c2.727-.112,5.621-.222,8.348-.222C164.034,134.735,167.763,138.56,167.763,144.436Zm-17.754-5.543V151.92a46.972,46.972,0,0,0,5.009.277c5.676,0,8.014-2.494,8.014-6.485V144.6c0-3.88-2.338-5.876-8.181-5.876C153.627,138.726,151.568,138.781,150.01,138.893Z" transform="translate(-65.47 -134.733)" fill="#683059"/>
          <path id="Pfad_826" data-name="Pfad 826" d="M194.4,135.366a1.259,1.259,0,0,1,1.391,1.386v1.5a1.258,1.258,0,0,1-1.391,1.385h-9.182v30.657a1.26,1.26,0,0,1-1.393,1.386h-1.948a1.259,1.259,0,0,1-1.391-1.386V139.634H171.3a1.258,1.258,0,0,1-1.391-1.385v-1.5a1.258,1.258,0,0,1,1.391-1.386Z" transform="translate(-64.057 -134.699)" fill="#683059"/>
          <path id="Pfad_827" data-name="Pfad 827" d="M205.818,152.579a1.258,1.258,0,0,1,1.392,1.386v.831a1.258,1.258,0,0,1-1.392,1.386h-9.46a1.259,1.259,0,0,1-1.393-1.386v-.831a1.259,1.259,0,0,1,1.393-1.386Z" transform="translate(-62.621 -133.784)" fill="#683059"/>
          <path id="Pfad_828" data-name="Pfad 828" d="M235.5,135.366a1.259,1.259,0,0,1,1.391,1.386V160.2c0,7.761-3.951,12.141-11.855,12.141-7.681,0-11.854-4.047-11.854-12.03v-23.56a1.259,1.259,0,0,1,1.391-1.386h1.948a1.258,1.258,0,0,1,1.39,1.386v24.17c0,4.823,2.616,7.263,7.124,7.263s7.124-2.439,7.124-7.263v-24.17a1.259,1.259,0,0,1,1.391-1.386Z" transform="translate(-61.576 -134.699)" fill="#683059"/>
          <path id="Pfad_829" data-name="Pfad 829" d="M265.354,144.88v1.33c0,6.763-3.95,10.866-12.522,10.866a33.034,33.034,0,0,1-5.344-.443v13.692a1.258,1.258,0,0,1-1.39,1.386h-1.948a1.259,1.259,0,0,1-1.391-1.386V136.4c0-.887.333-1.331,1.113-1.386,2.393-.111,5.009-.222,8.515-.277C261.348,134.625,265.354,138.5,265.354,144.88Zm-17.866-5.987v13.692a37.078,37.078,0,0,0,5.122.443c5.343,0,8.014-2.327,8.014-7.04v-.943c0-4.1-2.448-6.319-8.348-6.319A47.854,47.854,0,0,0,247.488,138.893Z" transform="translate(-59.88 -134.733)" fill="#683059"/>
        </g>
      </g>
    </g>
  </g>
</svg>
