<?xml version="1.0" encoding="UTF-8"?> <svg xmlns="http://www.w3.org/2000/svg" viewBox="0 0 228 69" width="228" height="69"><g fill="none" fill-rule="evenodd"><path d="M18.533 62.084 30.483 69V55.169l-11.95 6.915ZM0 51.359l18.532 10.724v-36.63L0 14.727V51.36Z" fill="#00aeef"></path><path d="m62.522 0-43.99 25.453 11.952 6.916v22.8L62.522 36.63z" fill="#e20074"></path><path d="M18.533 25.453v36.63l11.951-6.915V32.369z" fill="#008fd5"></path><path d="M115.725 34.242v-18.79h-5.164v10.766c0 2.366-1.32 3.93-3.283 3.93-1.84 0-2.522-1.202-2.522-3.088V15.452h-5.163v12.25c0 4.734 1.962 7.181 5.885 7.181 2.32 0 4.163-1.123 5.164-3.008h.24v2.367h4.843Zm15.23-19.982c-2.36 0-3.962 1.084-4.963 2.609h-.24v-9.43h-5.165v26.802h4.844v-2.487h.28c.962 1.806 2.642 3.13 5.244 3.13 4.724 0 7.366-4.052 7.366-10.312 0-6.299-2.642-10.312-7.366-10.312m-1.56 15.89c-2.482 0-3.684-2.007-3.684-5.578 0-3.57 1.202-5.577 3.684-5.577 2.481 0 3.682 1.966 3.682 5.577 0 3.61-1.2 5.577-3.682 5.577m-45.633-7.262c0-2.367 1.32-3.892 3.283-3.892 1.84 0 2.52 1.203 2.52 3.09v12.157h5.165v-12.8c0-4.734-1.962-7.181-5.885-7.181-2.241 0-3.963.962-4.843 2.487h-.24V7.439h-5.164v26.803h5.164V22.887Z" fill="#000000"></path><path d="M143.522 21.278h6.165v-5.826h-6.165v5.826Zm0 11.89h6.165v-5.825h-6.165v5.826Z" fill="#e20074"></path><path d="M163.91 15.344c-.36-.12-.84-.161-1.4-.161-2.042 0-3.963.963-4.964 3.05h-.2v-2.809h-2.442v18.818h2.601V23.93c0-4.093 1.602-6.26 5.085-6.26.32 0 .8 0 1.32.081v-2.407Zm17.811 18.777v-2.166c-.36.12-.64.2-1.04.2-.68 0-1.081-.481-1.081-1.284v-9.027c0-4.052-2.122-6.901-6.645-6.901-3.763 0-6.245 1.885-6.646 5.376h2.563c.32-2.006 1.68-3.13 4.043-3.13 3.082 0 4.083 1.966 4.083 4.574v.963h-1.441c-6.325 0-9.807 2.207-9.807 6.42 0 3.33 1.921 5.457 5.524 5.457 2.442 0 4.563-1.204 5.643-3.05h.2c0 2.007 1.282 2.93 2.844 2.93.64 0 1.32-.161 1.76-.362Zm-4.723-7.864c0 3.491-2.042 6.179-5.244 6.179-2.081 0-3.483-1.283-3.483-3.41 0-2.849 2.562-4.133 7.286-4.133h1.44v1.364Zm18.618-.441c0 4.012-1.641 6.46-4.844 6.46-2.922 0-3.962-1.886-3.962-4.615V15.424h-2.603v12.438c0 4.052 1.641 6.861 5.924 6.861 2.363 0 4.404-1.042 5.405-3.169h.2v2.688h2.482V15.424h-2.602v10.392Zm26.265-10.873c-2.48 0-4.763 1.042-5.764 3.45h-.24c-.68-2.087-2.402-3.45-5.365-3.45-2.361 0-4.443 1.042-5.444 3.169h-.199v-2.688h-2.443v18.818h2.603V23.81c0-3.973 1.64-6.46 4.804-6.46 2.962 0 3.962 1.926 3.962 4.614v12.278h2.603V23.81c0-4.374 1.64-6.46 4.843-6.46 2.922 0 3.963 1.926 3.963 4.614v12.278h2.602V21.763c0-4.052-1.642-6.82-5.925-6.82" fill="#000000"></path><path d="M79.9 55.371v-5.49h-1.76v-1.05h1.76v-1.837l.986-1.067h.29v2.904h2.61v1.05h-2.61v5.378c0 .937.444 1.369 1.199 1.369.368 0 .832-.095 1.199-.208v1.013c-.463.206-.948.281-1.508.281-1.315 0-2.166-.806-2.166-2.343m12.395-1.93h-6.207c.057 2.192.967 3.318 2.514 3.318 1.12 0 1.856-.507 2.243-1.387h1.334c-.503 1.536-1.78 2.473-3.577 2.473-2.301 0-3.772-1.724-3.772-4.63 0-2.885 1.432-4.61 3.79-4.61 2.244 0 3.695 1.669 3.695 4.442 0 .131 0 .281-.02.394m-6.168-1.012h4.93c-.134-1.799-1.005-2.736-2.437-2.736-1.469 0-2.32.937-2.493 2.736m11.602-3.823c1.914 0 3.229 1.144 3.538 2.924h-1.295c-.233-1.181-1.063-1.8-2.243-1.8-1.644 0-2.534 1.275-2.534 3.486 0 2.212.89 3.486 2.534 3.486 1.18 0 1.992-.618 2.243-1.78h1.295c-.309 1.78-1.624 2.924-3.538 2.924-2.379 0-3.829-1.762-3.829-4.63 0-2.867 1.45-4.61 3.829-4.61m12.298 3.186v5.829h-1.257v-5.736c0-1.255-.483-2.154-1.915-2.154-1.527 0-2.32 1.161-2.32 3.016v4.874h-1.257V45.1h1.258v4.873h.096c.444-.9 1.431-1.367 2.552-1.367 2.05 0 2.843 1.292 2.843 3.185m6.631-4.816h1.258v-1.874h-1.258v1.874Zm0 10.645h1.258v-8.79h-1.258v8.79Zm10.752-5.829v5.829h-1.257v-5.736c0-1.255-.483-2.154-1.914-2.154-1.528 0-2.32 1.161-2.32 3.016v4.874h-1.258v-8.79h1.18v1.256h.097c.484-.994 1.489-1.48 2.63-1.48 2.05 0 2.842 1.292 2.842 3.185m5.729-3.186c1.914 0 3.229 1.144 3.538 2.924h-1.295c-.233-1.181-1.063-1.8-2.243-1.8-1.644 0-2.534 1.275-2.534 3.486 0 2.212.89 3.486 2.534 3.486 1.18 0 1.992-.618 2.243-1.78h1.295c-.309 1.78-1.624 2.924-3.538 2.924-2.379 0-3.829-1.762-3.829-4.63 0-2.867 1.45-4.61 3.829-4.61m5.433 6.035v-5.81h1.258v5.716c0 1.275.501 2.155 1.914 2.155 1.546 0 2.34-1.143 2.34-3.017V48.83h1.256v8.789h-1.199v-1.255h-.096c-.483.993-1.47 1.48-2.611 1.48-2.069 0-2.862-1.312-2.862-3.204m17.099-1.425c0 2.886-1.334 4.629-3.616 4.629-1.257 0-2.321-.6-2.861-1.686h-.117v1.461h-1.18V45.102h1.258v5.04h.115c.562-.993 1.586-1.536 2.785-1.536 2.282 0 3.616 1.743 3.616 4.61m-1.296 0c0-2.174-.831-3.486-2.61-3.486-1.74 0-2.61 1.332-2.61 3.486 0 2.174.87 3.486 2.61 3.486 1.779 0 2.61-1.293 2.61-3.486m10.636 3.336v1.011a2.26 2.26 0 0 1-.851.17c-.755 0-1.373-.432-1.373-1.369h-.097c-.522.862-1.547 1.425-2.727 1.425-1.74 0-2.668-.993-2.668-2.549 0-1.968 1.682-2.999 4.738-2.999h.695v-.45c0-1.217-.482-2.136-1.971-2.136-1.142 0-1.8.525-1.954 1.462h-1.237c.193-1.63 1.391-2.51 3.21-2.51 2.185 0 3.21 1.33 3.21 3.222v4.217c0 .375.193.6.522.6.194 0 .329-.038.503-.094m-2.283-2.661v-.637h-.695c-2.282 0-3.52.599-3.52 1.93 0 .993.677 1.592 1.683 1.592 1.547 0 2.532-1.255 2.532-2.885m4.506 1.48v-5.49h-1.76v-1.05h1.76v-1.837l.986-1.067h.29v2.904h2.61v1.05h-2.61v5.378c0 .937.445 1.369 1.2 1.369.367 0 .831-.095 1.198-.208v1.013c-.464.206-.947.281-1.508.281-1.315 0-2.166-.806-2.166-2.343m4.912-2.155c0-2.83 1.489-4.61 3.906-4.61 2.436 0 3.906 1.78 3.906 4.61s-1.47 4.629-3.906 4.629c-2.417 0-3.906-1.799-3.906-4.629m6.516 0c0-2.174-.87-3.486-2.61-3.486-1.721 0-2.591 1.312-2.591 3.486 0 2.193.87 3.486 2.591 3.486 1.74 0 2.61-1.293 2.61-3.486m7.851-4.422v1.124c-.251-.038-.483-.038-.638-.038-1.682 0-2.456 1.013-2.456 2.924v4.816h-1.256v-8.79h1.178v1.312h.098c.483-.975 1.411-1.424 2.397-1.424.27 0 .503.019.677.075m4.68 4.422c0-2.83 1.488-4.61 3.906-4.61 2.436 0 3.906 1.78 3.906 4.61s-1.47 4.629-3.906 4.629c-2.418 0-3.907-1.799-3.907-4.629m6.517 0c0-2.174-.87-3.486-2.61-3.486-1.722 0-2.592 1.312-2.592 3.486 0 2.193.87 3.486 2.592 3.486 1.74 0 2.61-1.293 2.61-3.486m7.812-8.077v1.069a4.042 4.042 0 0 0-1.063-.131c-1.199 0-1.508.599-1.508 1.536v1.218h2.32v1.05h-2.32v7.739h-1.258v-7.74h-1.644V48.83h1.644v-1.274c0-1.762.968-2.586 2.514-2.586.426 0 .947.055 1.315.168" fill="#000000"></path><path d="M217.992 53.725h-3.105v-3.023h3.105v3.023Zm-3.105-9.984v5.131h.94v-.159c0-2.426 1.389-3.938 4.044-3.938h.163v10.899c0 1.511-.612 2.108-2.165 2.108h-.49v1.074h8.088v-1.074h-.449c-1.552 0-2.165-.597-2.165-2.108V44.815h.163c2.656 0 4.044 1.512 4.044 3.938v.159h.94v-5.17h-13.113Zm9.927 9.984h3.104v-3.023h-3.104v3.023Z" fill="#e20074"></path></g></svg> 